HIERARCHY
ROOT Hips
{
  OFFSET 5.70366 102.999 -1.77653
  CHANNELS 6 Xposition Yposition Zposition Zrotation Xrotation Yrotation
  JOINT RightUpLeg
  {
    OFFSET -8.9458 -8.66707 0.101652
    CHANNELS 3 Zrotation Xrotation Yrotation
    JOINT RightLeg
    {
      OFFSET 0 -44.4227 1.3727
      CHANNELS 3 Zrotation Xrotation Yrotation
      JOINT RightFoot
      {
        OFFSET 0.253549 -42.0924 -1.46059
        CHANNELS 3 Zrotation Xrotation Yrotation
        JOINT RightToes
        {
          OFFSET 0.04 -4.41509 8.4991
          CHANNELS 3 Zrotation Xrotation Yrotation
          End Site
          {
            OFFSET -0.08 -0.137448 9.77979
          }
        }
      }
    }
  }
  JOINT Spine
  {
    OFFSET 0 11.8905 0
    CHANNELS 3 Zrotation Xrotation Yrotation
    JOINT Spine1
    {
      OFFSET 0 25.6574 0.127663
      CHANNELS 3 Zrotation Xrotation Yrotation
      JOINT HEad
      {
        OFFSET 0 8.73416 0.011341
        CHANNELS 3 Zrotation Xrotation Yrotation
        End Site
        {
          OFFSET -0.29 12.7742 2.51395
        }
      }
      JOINT LeftShoulder1
      {
        OFFSET 8.99 -0.362252 -0.22
        CHANNELS 3 Zrotation Xrotation Yrotation
        JOINT LeftArm
        {
          OFFSET 10.2827 -0.00337999 0.322123
          CHANNELS 3 Zrotation Xrotation Yrotation
          JOINT LeftForeArm
          {
            OFFSET 26.2597 0.099144 -1.42434
            CHANNELS 3 Zrotation Xrotation Yrotation
            JOINT LeftHand
            {
              OFFSET 22.0902 0.085362 1.02216
              CHANNELS 3 Zrotation Xrotation Yrotation
              End Site
              {
                OFFSET 13.419 -0.6 1.50291
              }
            }
          }
        }
      }
      JOINT RightShoulder
      {
        OFFSET -8.99 -0.362252 -0.22
        CHANNELS 3 Zrotation Xrotation Yrotation
        JOINT RightArm
        {
          OFFSET -10.2827 -0.00338 0.322123
          CHANNELS 3 Zrotation Xrotation Yrotation
          JOINT RightForeArm
          {
            OFFSET -26.364 0.099144 -1.42434
            CHANNELS 3 Zrotation Xrotation Yrotation
            JOINT RightHand
            {
              OFFSET -22.0324 0.085362 1.02216
              CHANNELS 3 Zrotation Xrotation Yrotation
              End Site
              {
                OFFSET -13.3284 -0.6 1.50291
              }
            }
          }
        }
      }
    }
  }
  JOINT LeftUpLeg
  {
    OFFSET 8.9458 -8.66707 0.101652
    CHANNELS 3 Zrotation Xrotation Yrotation
    JOINT LeftLeg
    {
      OFFSET 0 -44.4227 1.3727
      CHANNELS 3 Zrotation Xrotation Yrotation
      JOINT LeftFoot
      {
        OFFSET -0.253549 -42.0924 -1.46059
        CHANNELS 3 Zrotation Xrotation Yrotation
        JOINT LeftToes
        {
          OFFSET -0.04 -4.41509 8.4991
          CHANNELS 3 Zrotation Xrotation Yrotation
          End Site
          {
            OFFSET 0.08 -0.047448 9.77979
          }
        }
      }
    }
  }
}
MOTION
Frames:	17
Frame Time:	0.0416667
-204.625 103.761 16.2515 3.40838 -1.10655 82.9985 -0.291199 -8.10934 3.41712 -1.90957 18.7436 -2.69078 -1.39913 -6.02758 -0.141019 0.0462048 0.00053089 0.662642 -1.4148 4.30889 0.227119 -0.586805 0.882187 0.240645 5.42311 11.7527 4.77692 -27.8886 -2.17872 10.0818 -49.963 -21.7388 -10.8516 -6.85366 54.4145 -7.43118 1.70247 9.79423 -8.69817 38.6911 1.01294 -1.93001 36.2033 -14.0507 1.29048 1.41802 35.8496 16.0913 1.44453 10.0445 2.20776 -0.149849 -5.23471 3.41756 1.55415 19.0889 21.1405 0.123852 -8.32401 0.0347398 -1.34031e-009 8.75223e-006 -1.4639e-008 
-204.01 103.765 16.3379 3.24271 -0.979673 83.8136 -0.341308 -8.09546 3.65439 -1.79255 19.4407 -3.86684 -2.28296 -6.80581 -0.149081 0.0462048 0.00053089 0.662642 -1.36422 4.2425 0.174682 -0.601503 1.02435 0.197361 5.55552 10.8911 3.93741 -27.9935 -2.16979 10.0371 -50.6038 -20.0138 -11.0927 -6.93036 52.7674 -7.96788 1.56814 9.80967 -8.88333 38.5437 1.04451 -1.85391 36.1435 -14.694 -0.104321 1.17524 35.2995 16.2954 1.61433 10.0503 1.97407 -0.229648 -5.14678 3.25232 1.54553 19.3317 20.5084 -0.156718 -9.44333 0.0388881 -1.34031e-009 8.75223e-006 -1.4639e-008 
-203.345 103.722 16.5461 2.83559 -0.802056 84.5301 -0.224984 -8.41937 4.61141 -1.65635 20.3581 -5.43928 -2.8537 -7.81246 -0.176573 0.0462048 0.00053089 0.662642 -1.50476 4.03412 0.148829 -0.694771 1.15994 0.195159 5.80922 10.1788 3.4921 -27.7453 -2.11131 9.91084 -51.0972 -17.1306 -11.5538 -6.70592 50.2281 -9.15392 1.65117 9.79765 -9.1931 38.6164 1.00938 -1.93487 35.9787 -15.26 -1.51517 1.05935 34.767 16.367 1.82568 10.0689 2.18588 -0.225375 -5.37494 3.1865 1.49617 19.7245 19.9226 -0.527657 -10.5037 0.0349355 -1.34031e-009 8.75223e-006 -1.4639e-008 
-202.545 103.674 16.8479 2.43891 -0.682626 85.3004 0.010941 -8.50833 5.47315 -1.51927 20.9817 -6.67761 -3.10487 -8.78945 -0.210136 0.0462048 0.00053089 0.662642 -1.72663 3.74877 -0.0120446 -0.789059 1.49773 0.0436851 6.11737 9.32383 3.14901 -27.5313 -2.10981 9.94428 -51.0896 -12.9018 -12.6346 -6.23681 46.8441 -10.8439 1.82224 9.77207 -9.75995 38.8083 0.952849 -2.06747 35.7728 -16.433 -2.81474 0.893121 35.344 16.0502 1.89427 10.0814 2.50407 -0.127994 -5.4615 3.15083 1.5146 20.015 19.15 -0.912568 -11.2598 0.0236963 -1.34031e-009 8.75223e-006 -1.4639e-008 
-201.633 103.642 17.2093 1.89849 -0.421625 86.1669 0.0520783 -8.64042 5.80494 -1.36185 21.4368 -7.14738 -3.47698 -9.64223 -0.245808 0.0462048 0.00053089 0.662642 -2.24322 3.48134 -0.252613 -0.639014 1.71193 -0.229643 6.35213 8.54455 2.58794 -27.4483 -2.12955 10.0172 -50.5551 -7.69961 -14.3173 -5.76106 41.9568 -12.6936 1.76601 9.77511 -10.4178 38.9275 0.879546 -2.23347 35.545 -18.4724 -4.2275 0.655372 36.5517 15.2706 1.89036 10.0824 2.55691 -0.131364 -5.46542 3.04526 1.56985 19.8858 18.2639 -1.5805 -11.602 -0.000204772 -1.34031e-009 8.75223e-006 -1.4639e-008 
-200.654 103.59 17.6326 1.04059 -0.183675 87.1445 0.138362 -9.06488 5.86249 -1.22008 21.9386 -7.52087 -3.97311 -10.6928 -0.298626 0.0462048 0.00053089 0.662642 -3.0209 3.53747 -0.552946 0.15906 1.12809 -0.667427 6.2213 8.00103 2.06919 -27.5542 -2.15962 10.0864 -49.3643 -1.67933 -16.1956 -5.32907 35.5454 -14.7337 1.85062 9.75901 -11.0143 38.585 0.902491 -2.17044 35.2061 -19.935 -6.53912 0.436784 36.5754 14.7586 2.04057 10.0857 2.29593 -0.0476144 -5.70349 2.92445 1.58612 19.538 17.3864 -1.9291 -11.6069 -0.0124431 -1.34031e-009 8.75223e-006 -1.4639e-008 
-199.512 103.552 18.1317 0.374477 -0.195137 88.1878 0.492096 -8.88555 5.62732 -1.22585 21.9529 -8.11759 -4.24435 -11.648 -0.348164 0.0462048 0.00053089 0.662642 -3.59208 3.92851 -0.930719 1.00543 0.624792 -1.20564 6.12251 6.95275 1.95636 -27.4039 -2.16494 10.1295 -47.9036 4.42668 -18.4248 -4.72897 28.9145 -17.067 2.37187 9.67798 -11.591 38.3996 0.954677 -2.04756 34.3916 -20.4107 -9.0478 0.353256 35.9604 14.6368 2.25559 10.0915 2.00904 0.294633 -5.70406 2.88239 1.64413 19.3267 16.3558 -1.93654 -11.6267 -0.0129545 -1.34031e-009 8.75223e-006 -1.4639e-008 
-198.166 103.512 18.6655 -0.0437194 -0.187073 88.7925 0.765812 -8.21591 5.14048 -1.30949 21.6183 -8.39967 -4.17577 -12.0878 -0.365149 0.0462048 0.00053089 0.662642 -3.68683 4.08378 -1.20587 1.09703 1.08931 -1.51298 6.53703 5.47946 2.26504 -26.5814 -2.03382 9.88701 -47.0378 8.51977 -20.6119 -4.25702 23.1515 -19.2673 2.77908 9.60548 -12.4053 38.9499 0.88858 -2.21413 33.1884 -21.0691 -10.4338 0.322632 36.1127 14.151 2.33081 10.0951 1.95968 0.556582 -5.35045 2.74993 1.79205 19.316 15.8261 -2.32797 -12.0722 -0.0336254 -1.34031e-009 8.75223e-006 -1.4639e-008 
-196.775 103.273 19.1333 -0.863228 -0.279772 88.9221 0.988633 -8.33951 4.40173 -1.24513 21.9159 -8.12348 -3.86196 -12.7607 -0.380842 0.0462048 0.00053089 0.662642 -3.2317 4.0044 -1.35119 1.23888 1.35407 -1.64912 6.49721 4.41304 2.73328 -25.8397 -1.85902 9.48423 -46.9224 9.69752 -21.7143 -4.46194 18.9487 -20.7409 2.67203 9.60579 -13.5174 39.1653 0.875185 -2.25122 32.3134 -21.8543 -11.24 0.165389 36.1339 13.7222 2.24397 10.0934 2.08244 0.918738 -5.92888 2.0877 1.65796 20.5868 16.4341 -2.18656 -13.2712 -0.0436348 -1.34031e-009 8.75223e-006 -1.4639e-008 
-195.44 102.646 19.4902 -1.91293 -1.0485 89.4837 1.61324 -9.18653 2.84413 -0.990679 23.3131 -7.40181 -3.1505 -14.5862 -0.411806 0.0462048 0.00053089 0.662642 -2.07926 4.42426 -1.51052 2.20378 0.858884 -1.91974 5.60092 3.07089 2.84831 -25.7504 -1.79374 9.29735 -46.81 9.83691 -22.0225 -4.79649 17.16 -21.3513 2.56981 9.61047 -14.3603 38.7574 1.03218 -1.89006 31.7145 -21.7997 -11.9556 0.0330329 34.706 14.28 2.07718 10.0861 2.21226 2.24643 -8.72648 1.93328 1.01703 25.4024 15.4526 -0.824435 -15.1076 0.0231585 -1.34031e-009 8.75223e-006 -1.4639e-008 
-193.994 101.882 19.7422 -2.57348 -2.0453 90.8006 2.31244 -9.64418 0.58406 -0.754299 25.0988 -6.51622 -2.41082 -16.824 -0.430463 0.0462048 0.00053089 0.662642 -0.472103 5.31466 -1.55426 2.93817 0.593865 -2.02667 5.55636 0.926685 2.41942 -25.8454 -1.79329 9.28013 -46.6588 9.88451 -21.6157 -4.60313 18.0114 -21.0884 2.79867 9.57022 -14.4237 39.1758 1.12591 -1.70312 31.0036 -21.7655 -11.0063 0.134337 33.0316 14.7111 1.86555 10.0766 2.38855 4.03019 -13.135 3.24933 0.83194 32.3777 11.2107 0.165497 -16.1486 0.095599 -1.34031e-009 8.75223e-006 -1.4639e-008 
-192.165 101.616 19.8986 -3.16457 -2.2909 92.035 2.35089 -8.99066 -0.989988 -0.657137 25.1873 -6.24114 -2.17449 -18.141 -0.446062 0.0462048 0.00053089 0.662642 0.590604 6.01521 -1.16867 2.72822 0.23437 -1.54672 6.76591 -0.452741 1.78173 -26.401 -1.89173 9.48808 -46.6677 7.86584 -19.1462 -4.49322 21.7689 -19.447 2.8801 9.56909 -13.6451 40.1932 1.10542 -1.79383 31.1476 -22.6244 -7.90864 0.204989 32.2852 14.225 1.54051 10.059 2.57856 4.82505 -17.8474 4.17338 0.771164 36.7471 8.45582 0.00751016 -15.5585 0.0803872 -1.34031e-009 8.75223e-006 -1.4639e-008 
-189.797 101.827 19.9474 -4.03618 -1.71725 92.863 1.64553 -7.13017 -1.83604 -0.648173 22.8141 -6.15054 -1.71746 -18.5664 -0.41262 0.0462048 0.00053089 0.662642 1.08068 6.2119 -0.173553 1.85235 -0.706792 -0.37131 7.40918 -0.34025 0.545497 -27.61 -2.15077 10.0489 -46.4061 0.667813 -14.6419 -5.1117 30.615 -16.104 2.5808 9.64062 -12.0508 40.3549 1.16571 -1.67241 32.9166 -22.975 -4.50442 0.0193421 30.9648 15.0301 1.11662 10.0353 2.88321 4.4592 -22.4511 4.84036 0.788412 36.9254 9.28767 -0.594766 -15.0383 0.03708 -1.34031e-009 8.75223e-006 -1.4639e-008 
-186.934 102.002 19.8543 -4.64716 -0.966523 93.4718 0.604201 -4.18321 -2.95223 -0.46365 19.4407 -5.51471 -1.05125 -18.3754 -0.344578 0.0462048 0.00053089 0.662642 2.21906 6.2078 1.34505 -0.033481 -1.13694 1.48302 6.70292 -0.10169 -1.71752 -28.3419 -2.37475 10.5637 -44.4201 -9.75683 -9.66818 -6.29158 42.3084 -12.1301 2.29206 9.70657 -10.1054 39.7437 1.28513 -1.3859 35.0866 -21.6717 -1.75847 -0.19897 27.9603 19.2271 0.784035 10.0336 4.30666 3.85984 -26.439 5.50289 0.859861 34.5608 11.7131 -1.1043 -15.1748 0.00317038 -1.34031e-009 8.75223e-006 -1.4639e-008 
-183.776 101.781 19.5916 -4.48012 -0.439658 93.9064 -0.136947 -0.867737 -3.95182 -0.272169 17.4414 -5.15785 -1.23279 -18.5688 -0.365451 0.0462048 0.00053089 0.662642 4.23558 6.92766 2.79272 -2.65975 -1.126 3.43361 5.50756 -0.024837 -3.45006 -28.2869 -2.48476 10.8907 -39.6435 -18.4553 -4.11841 -7.40781 50.7969 -8.89607 2.31486 9.71835 -8.81518 38.7986 1.40709 -1.06512 36.5116 -19.9908 1.12914 -0.073838 25.5887 26.0073 0.38505 10.0376 7.41145 3.56497 -29.6174 6.28923 0.886006 32.1732 12.8149 -1.22723 -14.757 -0.00300168 -1.34031e-009 8.75223e-006 -1.4639e-008 
-180.452 101.017 19.1948 -3.53421 -0.198378 94.455 -0.275111 2.50377 -4.47269 -0.507317 17.3689 -5.35622 -1.37103 -20.2278 -0.410206 0.0462048 0.00053089 0.662642 6.09812 8.54063 3.64097 -4.79151 -1.40167 4.74758 4.29859 0.523803 -3.51007 -27.7293 -2.49645 11.0389 -32.8384 -24.4712 2.32777 -7.73965 55.2174 -6.9255 2.36561 9.71936 -8.20651 37.4515 1.63813 -0.453254 37.0298 -18.7114 4.49448 0.0903936 24.7799 34.1187 -0.413591 9.96549 10.6253 3.52624 -32.336 7.14606 0.858417 31.6993 12.3115 -1.09152 -13.9505 0.00857694 -1.34031e-009 8.75223e-006 -1.4639e-008 
-176.786 99.8025 18.6571 -2.19667 -0.148168 95.0808 -0.240696 5.91741 -4.95937 -0.753865 18.6956 -5.53819 -0.901807 -22.509 -0.393188 0.0462048 0.00053089 0.662642 7.54592 9.44006 4.24443 -6.21653 -0.746308 5.75489 3.22611 1.38447 -3.53537 -26.3451 -2.24489 10.5696 -26.3792 -27.159 8.40954 -7.03965 56.7293 -6.72531 2.2449 9.73894 -7.70905 35.6618 1.90229 0.318361 37.1823 -18.767 7.76994 0.116456 24.3783 42.6967 -0.996477 9.88558 12.3471 3.65344 -34.2927 8.23485 0.845891 33.1954 11.6774 -1.37726 -13.4426 -0.00322292 -1.34031e-009 8.75223e-006 -1.4639e-008 
